<?xml version="1.0" encoding="UTF-8" standalone="no"?>
<!-- Created with Inkscape (http://www.inkscape.org/) -->

<svg
   width="14mm"
   height="14mm"
   viewBox="0 0 14 14"
   version="1.1"
   id="svg5"
   inkscape:version="1.1.2 (0a00cf5339, 2022-02-04)"
   sodipodi:docname="framagit.svg"
   xmlns:inkscape="http://www.inkscape.org/namespaces/inkscape"
   xmlns:sodipodi="http://sodipodi.sourceforge.net/DTD/sodipodi-0.dtd"
   xmlns="http://www.w3.org/2000/svg"
   xmlns:svg="http://www.w3.org/2000/svg">
  <sodipodi:namedview
     id="namedview7"
     pagecolor="#ffffff"
     bordercolor="#999999"
     borderopacity="1"
     inkscape:pageshadow="0"
     inkscape:pageopacity="0"
     inkscape:pagecheckerboard="0"
     inkscape:document-units="mm"
     showgrid="false"
     width="14mm"
     inkscape:showpageshadow="false"
     showborder="false"
     inkscape:zoom="5.6340776"
     inkscape:cx="22.896383"
     inkscape:cy="31.504713"
     inkscape:window-width="1360"
     inkscape:window-height="744"
     inkscape:window-x="0"
     inkscape:window-y="16"
     inkscape:window-maximized="0"
     inkscape:current-layer="layer1" />
  <defs
     id="defs2" />
  <g
     inkscape:label="Слой 1"
     inkscape:groupmode="layer"
     id="layer1">
    <path
       style="fill:#725794;fill-opacity:1;stroke:#f5c433;stroke-width:0;stroke-linecap:round;stroke-linejoin:round;stroke-opacity:0.471626"
       id="path103-3"
       sodipodi:type="arc"
       sodipodi:cx="3.6772935"
       sodipodi:cy="7.5484195"
       sodipodi:rx="0.92463189"
       sodipodi:ry="0.91013789"
       sodipodi:start="0"
       sodipodi:end="6.2594314"
       sodipodi:open="true"
       sodipodi:arc-type="arc"
       d="M 4.6019254,7.5484195 A 0.92463189,0.91013789 0 0 1 3.6827844,8.4585413 0.92463189,0.91013789 0 0 1 2.7527269,7.5592289 0.92463189,0.91013789 0 0 1 3.6608217,6.638426 0.92463189,0.91013789 0 0 1 4.6016646,7.5268022" />
    <path
       style="fill:#725794;fill-opacity:1;stroke:#f5c433;stroke-width:0;stroke-linecap:round;stroke-linejoin:round;stroke-opacity:0.471626"
       id="path103-6"
       sodipodi:type="arc"
       sodipodi:cx="4.7863307"
       sodipodi:cy="10.040139"
       sodipodi:rx="0.68285769"
       sodipodi:ry="0.68134731"
       sodipodi:start="0"
       sodipodi:end="6.2594314"
       sodipodi:open="true"
       sodipodi:arc-type="arc"
       d="M 5.4691884,10.040139 A 0.68285769,0.68134731 0 0 1 4.7903858,10.721474 0.68285769,0.68134731 0 0 1 4.1035212,10.048231 0.68285769,0.68134731 0 0 1 4.7741659,9.3589 0.68285769,0.68134731 0 0 1 5.4689958,10.023956" />
    <path
       style="fill:#725794;fill-opacity:1;stroke:#f5c433;stroke-width:0;stroke-linecap:round;stroke-linejoin:round;stroke-opacity:0.471626"
       id="path103"
       sodipodi:type="arc"
       sodipodi:cx="2.351352"
       sodipodi:cy="4.626729"
       sodipodi:rx="1.1752934"
       sodipodi:ry="1.1810057"
       sodipodi:start="0"
       sodipodi:end="6.2594314"
       sodipodi:open="true"
       sodipodi:arc-type="arc"
       d="M 3.5266454,4.626729 A 1.1752934,1.1810057 0 0 1 2.3583314,5.8077139 1.1752934,1.1810057 0 0 1 1.1761414,4.6407554 1.1752934,1.1810057 0 0 1 2.3304147,3.4459107 1.1752934,1.1810057 0 0 1 3.5263139,4.5986781" />
    <path
       style="fill:#dd6418;fill-opacity:1;stroke:#f5c433;stroke-width:0;stroke-linecap:round;stroke-linejoin:round;stroke-opacity:0.471626"
       id="path3018-7"
       sodipodi:type="arc"
       sodipodi:cx="11.408154"
       sodipodi:cy="11.107947"
       sodipodi:rx="0.4638001"
       sodipodi:ry="0.45994136"
       sodipodi:start="0"
       sodipodi:end="6.2594314"
       sodipodi:open="true"
       sodipodi:arc-type="arc"
       d="m 11.871954,11.107947 a 0.4638001,0.45994136 0 0 1 -0.461046,0.459934 0.4638001,0.45994136 0 0 1 -0.466522,-0.454471 0.4638001,0.45994136 0 0 1 0.455505,-0.465331 0.4638001,0.45994136 0 0 1 0.471932,0.448944" />
    <path
       style="fill:#dd6418;fill-opacity:1;stroke:#f5c433;stroke-width:0;stroke-linecap:round;stroke-linejoin:round;stroke-opacity:0.471626"
       id="path3018"
       sodipodi:type="arc"
       sodipodi:cx="11.751447"
       sodipodi:cy="9.5818462"
       sodipodi:rx="0.57995874"
       sodipodi:ry="0.5711503"
       sodipodi:start="0"
       sodipodi:end="6.2594314"
       sodipodi:open="true"
       sodipodi:arc-type="arc"
       d="m 12.331405,9.5818462 a 0.57995874,0.5711503 0 0 1 -0.576514,0.5711398 0.57995874,0.5711503 0 0 1 -0.583362,-0.5643564 0.57995874,0.5711503 0 0 1 0.569586,-0.577843 0.57995874,0.5711503 0 0 1 0.590127,0.5574939" />
    <path
       style="fill:#dd6418;fill-opacity:1;stroke:#000000;stroke-width:0;stroke-linecap:butt;stroke-linejoin:miter;stroke-miterlimit:4;stroke-dasharray:none;stroke-opacity:1"
       d="m 10.606359,4.1436382 0.508802,0.012342 c 0.436004,0.7468657 0.485739,1.2570812 0.486932,1.7375562 -0.01083,0.016543 -0.03433,0.014772 -0.06304,0.0055 C 11.172074,5.2669091 10.50043,4.7583438 9.8906658,4.2246819 c -0.011415,-0.024076 -0.015942,-0.045557 0.029093,-0.048376 0.2167382,0.124846 0.4466322,0.2401322 0.6994552,0.3387557 0.135968,0.020056 0.167146,-0.040543 0.13829,-0.147349 -0.03247,-0.086491 -0.08685,-0.1585481 -0.151147,-0.2240759 z"
       id="path6732"
       sodipodi:nodetypes="ccccccccc" />
    <path
       id="path24113"
       style="fill:#000000;fill-opacity:1;stroke:#e60000;stroke-width:0;stroke-linecap:butt;stroke-linejoin:miter;stroke-miterlimit:4;stroke-dasharray:none;stroke-opacity:1"
       d="m 1.5072651,1.0246565 c -0.1371246,1.74e-4 -0.1279069,0.1285179 -0.048802,0.2113046 2.0436688,0.9639913 3.7557789,2.2598842 3.8552816,5.1699422 0.2605631,1.5343709 0.7314187,2.468223 1.2346506,3.3096825 1.1671194,1.6351722 2.7798397,2.6774252 5.0390757,2.8594622 0.156142,-0.0042 0.234134,-0.179144 0.02235,-0.270724 C 8.6598327,11.474803 7.0764287,7.5061136 8.1070665,4.6983858 8.4286314,4.2141484 8.7714806,3.7498376 9.6608144,3.7970022 9.9536645,3.911867 10.224067,4.0840991 10.552695,4.107452 l 0.569486,0.0042 C 11.397486,3.3898276 10.832997,3.0958625 10.525125,2.6711711 10.693693,2.4908501 11.593276,2.2468737 12.54853,1.9980445 12.586716,1.9338198 12.606147,1.8421002 12.519419,1.7910636 11.479578,1.8168573 10.506278,1.9336922 9.6249404,2.2066949 7.8755845,1.2402003 6.5089083,2.5912097 6.0720609,3.2804702 4.9553825,1.6356226 1.9814112,1.2458832 1.5366746,1.0263688 c -0.010465,-0.00118 -0.020268,-0.00172 -0.02941,-0.00171 z m 6.7966362,1.1201799 c 0.079493,-4.722e-4 0.1629468,0.00295 0.2508171,0.010702 0.2195382,0.059179 0.1473719,0.1660983 0.08716,0.2710658 C 8.3751961,2.6135931 6.5390578,3.0193464 6.1266851,4.4556167 6.0720137,4.470747 6.0363325,4.459043 6.0496719,4.3781326 6.1682688,3.8300288 6.3164374,3.28085 6.9311065,2.7145369 7.2733434,2.4114839 7.6566054,2.1486595 8.3039013,2.1448364 Z" />
  </g>
</svg>
